<mxfile host="app.diagrams.net" agent="Mozilla/5.0 (Windows NT 10.0; Win64; x64) AppleWebKit/537.36 (KHTML, like Gecko) Chrome/131.0.0.0 Safari/537.36" version="26.1.0">
  <diagram id="C5RBs43oDa-KdzZeNtuy" name="Page-1">
    <mxGraphModel dx="1481" dy="815" grid="1" gridSize="10" guides="1" tooltips="1" connect="1" arrows="1" fold="1" page="1" pageScale="1" pageWidth="827" pageHeight="1169" math="0" shadow="0">
      <root>
        <mxCell id="WIyWlLk6GJQsqaUBKTNV-0" />
        <mxCell id="WIyWlLk6GJQsqaUBKTNV-1" parent="WIyWlLk6GJQsqaUBKTNV-0" />
        <mxCell id="pCE1JtV5IQSBqkXDCpha-0" value="Pool" style="swimlane;childLayout=stackLayout;resizeParent=1;resizeParentMax=0;startSize=20;html=1;" vertex="1" parent="WIyWlLk6GJQsqaUBKTNV-1">
          <mxGeometry y="80" width="1455" height="2160" as="geometry" />
        </mxCell>
        <mxCell id="pCE1JtV5IQSBqkXDCpha-1" value="MCS" style="swimlane;startSize=20;html=1;" vertex="1" parent="pCE1JtV5IQSBqkXDCpha-0">
          <mxGeometry y="20" width="700" height="2140" as="geometry" />
        </mxCell>
        <mxCell id="pCE1JtV5IQSBqkXDCpha-20" value="" style="edgeStyle=orthogonalEdgeStyle;rounded=0;orthogonalLoop=1;jettySize=auto;html=1;" edge="1" parent="pCE1JtV5IQSBqkXDCpha-1" source="pCE1JtV5IQSBqkXDCpha-4" target="pCE1JtV5IQSBqkXDCpha-19">
          <mxGeometry relative="1" as="geometry" />
        </mxCell>
        <mxCell id="pCE1JtV5IQSBqkXDCpha-4" value="" style="strokeWidth=2;html=1;shape=mxgraph.flowchart.terminator;whiteSpace=wrap;" vertex="1" parent="pCE1JtV5IQSBqkXDCpha-1">
          <mxGeometry x="285" y="60" width="100" height="60" as="geometry" />
        </mxCell>
        <mxCell id="pCE1JtV5IQSBqkXDCpha-16" value="" style="edgeStyle=orthogonalEdgeStyle;rounded=0;orthogonalLoop=1;jettySize=auto;html=1;" edge="1" parent="pCE1JtV5IQSBqkXDCpha-1" source="pCE1JtV5IQSBqkXDCpha-12" target="pCE1JtV5IQSBqkXDCpha-15">
          <mxGeometry relative="1" as="geometry" />
        </mxCell>
        <mxCell id="pCE1JtV5IQSBqkXDCpha-49" value="Y" style="edgeLabel;html=1;align=center;verticalAlign=middle;resizable=0;points=[];" vertex="1" connectable="0" parent="pCE1JtV5IQSBqkXDCpha-16">
          <mxGeometry x="-0.3827" relative="1" as="geometry">
            <mxPoint as="offset" />
          </mxGeometry>
        </mxCell>
        <mxCell id="pCE1JtV5IQSBqkXDCpha-47" style="edgeStyle=orthogonalEdgeStyle;rounded=0;orthogonalLoop=1;jettySize=auto;html=1;entryX=0;entryY=0.5;entryDx=0;entryDy=0;" edge="1" parent="pCE1JtV5IQSBqkXDCpha-1" source="pCE1JtV5IQSBqkXDCpha-12" target="pCE1JtV5IQSBqkXDCpha-32">
          <mxGeometry relative="1" as="geometry">
            <Array as="points">
              <mxPoint x="155" y="382" />
              <mxPoint x="155" y="820" />
            </Array>
          </mxGeometry>
        </mxCell>
        <mxCell id="pCE1JtV5IQSBqkXDCpha-48" value="N" style="edgeLabel;html=1;align=center;verticalAlign=middle;resizable=0;points=[];" vertex="1" connectable="0" parent="pCE1JtV5IQSBqkXDCpha-47">
          <mxGeometry x="-0.8712" y="-2" relative="1" as="geometry">
            <mxPoint as="offset" />
          </mxGeometry>
        </mxCell>
        <mxCell id="pCE1JtV5IQSBqkXDCpha-12" value="" style="strokeWidth=2;html=1;shape=mxgraph.flowchart.decision;whiteSpace=wrap;" vertex="1" parent="pCE1JtV5IQSBqkXDCpha-1">
          <mxGeometry x="285" y="332" width="100" height="100" as="geometry" />
        </mxCell>
        <mxCell id="pCE1JtV5IQSBqkXDCpha-14" value="是否支持代理" style="text;html=1;align=center;verticalAlign=middle;resizable=0;points=[];autosize=1;strokeColor=none;fillColor=none;" vertex="1" parent="pCE1JtV5IQSBqkXDCpha-1">
          <mxGeometry x="350" y="320" width="100" height="30" as="geometry" />
        </mxCell>
        <mxCell id="pCE1JtV5IQSBqkXDCpha-44" value="" style="edgeStyle=orthogonalEdgeStyle;rounded=0;orthogonalLoop=1;jettySize=auto;html=1;dashed=1;dashPattern=8 8;entryX=0.5;entryY=0;entryDx=0;entryDy=0;" edge="1" parent="pCE1JtV5IQSBqkXDCpha-1" source="pCE1JtV5IQSBqkXDCpha-15" target="pCE1JtV5IQSBqkXDCpha-59">
          <mxGeometry relative="1" as="geometry">
            <mxPoint x="335" y="620" as="targetPoint" />
          </mxGeometry>
        </mxCell>
        <mxCell id="pCE1JtV5IQSBqkXDCpha-15" value="发送代理配置" style="whiteSpace=wrap;html=1;strokeWidth=2;" vertex="1" parent="pCE1JtV5IQSBqkXDCpha-1">
          <mxGeometry x="275" y="500" width="120" height="60" as="geometry" />
        </mxCell>
        <mxCell id="pCE1JtV5IQSBqkXDCpha-19" value="RPC 初始化" style="whiteSpace=wrap;html=1;strokeWidth=2;" vertex="1" parent="pCE1JtV5IQSBqkXDCpha-1">
          <mxGeometry x="275" y="170" width="120" height="60" as="geometry" />
        </mxCell>
        <mxCell id="pCE1JtV5IQSBqkXDCpha-57" value="" style="edgeStyle=orthogonalEdgeStyle;rounded=0;orthogonalLoop=1;jettySize=auto;html=1;" edge="1" parent="pCE1JtV5IQSBqkXDCpha-1" source="pCE1JtV5IQSBqkXDCpha-32" target="pCE1JtV5IQSBqkXDCpha-56">
          <mxGeometry relative="1" as="geometry" />
        </mxCell>
        <mxCell id="pCE1JtV5IQSBqkXDCpha-32" value="开始建立长链接" style="whiteSpace=wrap;html=1;strokeWidth=2;" vertex="1" parent="pCE1JtV5IQSBqkXDCpha-1">
          <mxGeometry x="275" y="790" width="120" height="60" as="geometry" />
        </mxCell>
        <mxCell id="pCE1JtV5IQSBqkXDCpha-46" style="edgeStyle=orthogonalEdgeStyle;rounded=0;orthogonalLoop=1;jettySize=auto;html=1;exitX=0.5;exitY=1;exitDx=0;exitDy=0;" edge="1" parent="pCE1JtV5IQSBqkXDCpha-1" target="pCE1JtV5IQSBqkXDCpha-32">
          <mxGeometry relative="1" as="geometry">
            <mxPoint x="335" y="700" as="sourcePoint" />
          </mxGeometry>
        </mxCell>
        <mxCell id="pCE1JtV5IQSBqkXDCpha-61" value="" style="edgeStyle=orthogonalEdgeStyle;rounded=0;orthogonalLoop=1;jettySize=auto;html=1;" edge="1" parent="pCE1JtV5IQSBqkXDCpha-1" source="pCE1JtV5IQSBqkXDCpha-56" target="pCE1JtV5IQSBqkXDCpha-60">
          <mxGeometry relative="1" as="geometry" />
        </mxCell>
        <mxCell id="pCE1JtV5IQSBqkXDCpha-62" value="Y" style="edgeLabel;html=1;align=center;verticalAlign=middle;resizable=0;points=[];" vertex="1" connectable="0" parent="pCE1JtV5IQSBqkXDCpha-61">
          <mxGeometry x="-0.5454" relative="1" as="geometry">
            <mxPoint as="offset" />
          </mxGeometry>
        </mxCell>
        <mxCell id="pCE1JtV5IQSBqkXDCpha-64" value="" style="edgeStyle=orthogonalEdgeStyle;rounded=0;orthogonalLoop=1;jettySize=auto;html=1;entryX=1;entryY=0.5;entryDx=0;entryDy=0;" edge="1" parent="pCE1JtV5IQSBqkXDCpha-1" source="pCE1JtV5IQSBqkXDCpha-56" target="pCE1JtV5IQSBqkXDCpha-63">
          <mxGeometry relative="1" as="geometry">
            <mxPoint x="205" y="960" as="targetPoint" />
          </mxGeometry>
        </mxCell>
        <mxCell id="pCE1JtV5IQSBqkXDCpha-87" value="N" style="edgeLabel;html=1;align=center;verticalAlign=middle;resizable=0;points=[];" vertex="1" connectable="0" parent="pCE1JtV5IQSBqkXDCpha-64">
          <mxGeometry x="-0.4901" y="-1" relative="1" as="geometry">
            <mxPoint as="offset" />
          </mxGeometry>
        </mxCell>
        <mxCell id="pCE1JtV5IQSBqkXDCpha-56" value="" style="rhombus;whiteSpace=wrap;html=1;strokeWidth=2;" vertex="1" parent="pCE1JtV5IQSBqkXDCpha-1">
          <mxGeometry x="295" y="920" width="80" height="80" as="geometry" />
        </mxCell>
        <mxCell id="pCE1JtV5IQSBqkXDCpha-58" value="是否代理成功" style="text;html=1;align=center;verticalAlign=middle;resizable=0;points=[];autosize=1;strokeColor=none;fillColor=none;" vertex="1" parent="pCE1JtV5IQSBqkXDCpha-1">
          <mxGeometry x="335" y="908" width="100" height="30" as="geometry" />
        </mxCell>
        <mxCell id="pCE1JtV5IQSBqkXDCpha-59" value="返回代理结果" style="whiteSpace=wrap;html=1;strokeWidth=2;" vertex="1" parent="pCE1JtV5IQSBqkXDCpha-1">
          <mxGeometry x="275" y="640" width="120" height="60" as="geometry" />
        </mxCell>
        <mxCell id="pCE1JtV5IQSBqkXDCpha-66" value="" style="edgeStyle=orthogonalEdgeStyle;rounded=0;orthogonalLoop=1;jettySize=auto;html=1;" edge="1" parent="pCE1JtV5IQSBqkXDCpha-1" source="pCE1JtV5IQSBqkXDCpha-60" target="pCE1JtV5IQSBqkXDCpha-65">
          <mxGeometry relative="1" as="geometry" />
        </mxCell>
        <mxCell id="pCE1JtV5IQSBqkXDCpha-60" value="监听响应消息" style="whiteSpace=wrap;html=1;strokeWidth=2;" vertex="1" parent="pCE1JtV5IQSBqkXDCpha-1">
          <mxGeometry x="275" y="1090" width="120" height="60" as="geometry" />
        </mxCell>
        <mxCell id="pCE1JtV5IQSBqkXDCpha-63" value="自有心跳逻辑" style="whiteSpace=wrap;html=1;strokeWidth=2;" vertex="1" parent="pCE1JtV5IQSBqkXDCpha-1">
          <mxGeometry x="40" y="930" width="120" height="60" as="geometry" />
        </mxCell>
        <mxCell id="pCE1JtV5IQSBqkXDCpha-71" value="" style="edgeStyle=orthogonalEdgeStyle;rounded=0;orthogonalLoop=1;jettySize=auto;html=1;" edge="1" parent="pCE1JtV5IQSBqkXDCpha-1" source="pCE1JtV5IQSBqkXDCpha-65" target="pCE1JtV5IQSBqkXDCpha-70">
          <mxGeometry relative="1" as="geometry" />
        </mxCell>
        <mxCell id="pCE1JtV5IQSBqkXDCpha-65" value="超时响应" style="whiteSpace=wrap;html=1;strokeWidth=2;" vertex="1" parent="pCE1JtV5IQSBqkXDCpha-1">
          <mxGeometry x="275" y="1230" width="120" height="60" as="geometry" />
        </mxCell>
        <mxCell id="pCE1JtV5IQSBqkXDCpha-77" value="" style="edgeStyle=orthogonalEdgeStyle;rounded=0;orthogonalLoop=1;jettySize=auto;html=1;" edge="1" parent="pCE1JtV5IQSBqkXDCpha-1" source="pCE1JtV5IQSBqkXDCpha-70" target="pCE1JtV5IQSBqkXDCpha-76">
          <mxGeometry relative="1" as="geometry" />
        </mxCell>
        <mxCell id="pCE1JtV5IQSBqkXDCpha-79" value="Y" style="edgeLabel;html=1;align=center;verticalAlign=middle;resizable=0;points=[];" vertex="1" connectable="0" parent="pCE1JtV5IQSBqkXDCpha-77">
          <mxGeometry x="-0.448" y="-1" relative="1" as="geometry">
            <mxPoint as="offset" />
          </mxGeometry>
        </mxCell>
        <mxCell id="pCE1JtV5IQSBqkXDCpha-80" style="edgeStyle=orthogonalEdgeStyle;rounded=0;orthogonalLoop=1;jettySize=auto;html=1;exitX=1;exitY=0.5;exitDx=0;exitDy=0;entryX=0.5;entryY=0;entryDx=0;entryDy=0;" edge="1" parent="pCE1JtV5IQSBqkXDCpha-1" source="pCE1JtV5IQSBqkXDCpha-70" target="pCE1JtV5IQSBqkXDCpha-78">
          <mxGeometry relative="1" as="geometry" />
        </mxCell>
        <mxCell id="pCE1JtV5IQSBqkXDCpha-70" value="" style="rhombus;whiteSpace=wrap;html=1;strokeWidth=2;" vertex="1" parent="pCE1JtV5IQSBqkXDCpha-1">
          <mxGeometry x="295" y="1360" width="80" height="80" as="geometry" />
        </mxCell>
        <mxCell id="pCE1JtV5IQSBqkXDCpha-72" value="是否重新连接 （云控）" style="text;html=1;align=center;verticalAlign=middle;resizable=0;points=[];autosize=1;strokeColor=none;fillColor=none;" vertex="1" parent="pCE1JtV5IQSBqkXDCpha-1">
          <mxGeometry x="335" y="1348" width="150" height="30" as="geometry" />
        </mxCell>
        <mxCell id="pCE1JtV5IQSBqkXDCpha-76" value="重新发起链接" style="whiteSpace=wrap;html=1;strokeWidth=2;" vertex="1" parent="pCE1JtV5IQSBqkXDCpha-1">
          <mxGeometry x="275" y="1520" width="120" height="60" as="geometry" />
        </mxCell>
        <mxCell id="pCE1JtV5IQSBqkXDCpha-78" value="走自有心跳" style="whiteSpace=wrap;html=1;strokeWidth=2;" vertex="1" parent="pCE1JtV5IQSBqkXDCpha-1">
          <mxGeometry x="500" y="1520" width="120" height="60" as="geometry" />
        </mxCell>
        <mxCell id="pCE1JtV5IQSBqkXDCpha-2" value="RPC SDK&amp;nbsp;" style="swimlane;startSize=20;html=1;" vertex="1" parent="pCE1JtV5IQSBqkXDCpha-0">
          <mxGeometry x="700" y="20" width="435" height="2140" as="geometry" />
        </mxCell>
        <mxCell id="pCE1JtV5IQSBqkXDCpha-8" value="返回固件是否支持&lt;br&gt;代理" style="rounded=1;whiteSpace=wrap;html=1;" vertex="1" parent="pCE1JtV5IQSBqkXDCpha-2">
          <mxGeometry x="152.5" y="170" width="120" height="60" as="geometry" />
        </mxCell>
        <mxCell id="pCE1JtV5IQSBqkXDCpha-17" value="设置心跳代理" style="whiteSpace=wrap;html=1;strokeWidth=2;" vertex="1" parent="pCE1JtV5IQSBqkXDCpha-2">
          <mxGeometry x="152.5" y="500" width="120" height="60" as="geometry" />
        </mxCell>
        <mxCell id="pCE1JtV5IQSBqkXDCpha-51" value="" style="edgeStyle=orthogonalEdgeStyle;rounded=0;orthogonalLoop=1;jettySize=auto;html=1;" edge="1" parent="pCE1JtV5IQSBqkXDCpha-2" source="pCE1JtV5IQSBqkXDCpha-30" target="pCE1JtV5IQSBqkXDCpha-50">
          <mxGeometry relative="1" as="geometry" />
        </mxCell>
        <mxCell id="pCE1JtV5IQSBqkXDCpha-30" value="代理定时心跳" style="shape=process;whiteSpace=wrap;html=1;backgroundOutline=1;strokeWidth=2;" vertex="1" parent="pCE1JtV5IQSBqkXDCpha-2">
          <mxGeometry x="152.5" y="790" width="120" height="60" as="geometry" />
        </mxCell>
        <mxCell id="pCE1JtV5IQSBqkXDCpha-38" style="edgeStyle=orthogonalEdgeStyle;rounded=0;orthogonalLoop=1;jettySize=auto;html=1;exitX=0.5;exitY=1;exitDx=0;exitDy=0;entryX=0.5;entryY=0;entryDx=0;entryDy=0;" edge="1" parent="pCE1JtV5IQSBqkXDCpha-2" source="pCE1JtV5IQSBqkXDCpha-25" target="pCE1JtV5IQSBqkXDCpha-30">
          <mxGeometry relative="1" as="geometry" />
        </mxCell>
        <mxCell id="pCE1JtV5IQSBqkXDCpha-42" value="Y" style="edgeLabel;html=1;align=center;verticalAlign=middle;resizable=0;points=[];" vertex="1" connectable="0" parent="pCE1JtV5IQSBqkXDCpha-38">
          <mxGeometry x="-0.2639" y="-1" relative="1" as="geometry">
            <mxPoint as="offset" />
          </mxGeometry>
        </mxCell>
        <mxCell id="pCE1JtV5IQSBqkXDCpha-25" value="" style="rhombus;whiteSpace=wrap;html=1;strokeWidth=2;" vertex="1" parent="pCE1JtV5IQSBqkXDCpha-2">
          <mxGeometry x="172.5" y="620" width="80" height="80" as="geometry" />
        </mxCell>
        <mxCell id="pCE1JtV5IQSBqkXDCpha-26" value="" style="edgeStyle=orthogonalEdgeStyle;rounded=0;orthogonalLoop=1;jettySize=auto;html=1;exitX=0.5;exitY=1;exitDx=0;exitDy=0;" edge="1" parent="pCE1JtV5IQSBqkXDCpha-2" source="pCE1JtV5IQSBqkXDCpha-17" target="pCE1JtV5IQSBqkXDCpha-25">
          <mxGeometry relative="1" as="geometry" />
        </mxCell>
        <mxCell id="pCE1JtV5IQSBqkXDCpha-27" value="代理成功" style="text;html=1;align=center;verticalAlign=middle;resizable=0;points=[];autosize=1;strokeColor=none;fillColor=none;" vertex="1" parent="pCE1JtV5IQSBqkXDCpha-2">
          <mxGeometry x="230" y="610" width="70" height="30" as="geometry" />
        </mxCell>
        <mxCell id="pCE1JtV5IQSBqkXDCpha-52" style="edgeStyle=orthogonalEdgeStyle;rounded=0;orthogonalLoop=1;jettySize=auto;html=1;entryX=1;entryY=0.5;entryDx=0;entryDy=0;exitX=1;exitY=0.5;exitDx=0;exitDy=0;" edge="1" parent="pCE1JtV5IQSBqkXDCpha-2" source="pCE1JtV5IQSBqkXDCpha-50" target="pCE1JtV5IQSBqkXDCpha-30">
          <mxGeometry relative="1" as="geometry">
            <Array as="points">
              <mxPoint x="345" y="960" />
              <mxPoint x="345" y="820" />
            </Array>
          </mxGeometry>
        </mxCell>
        <mxCell id="pCE1JtV5IQSBqkXDCpha-69" value="N" style="edgeLabel;html=1;align=center;verticalAlign=middle;resizable=0;points=[];" vertex="1" connectable="0" parent="pCE1JtV5IQSBqkXDCpha-52">
          <mxGeometry x="-0.6979" y="1" relative="1" as="geometry">
            <mxPoint as="offset" />
          </mxGeometry>
        </mxCell>
        <mxCell id="pCE1JtV5IQSBqkXDCpha-50" value="" style="rhombus;whiteSpace=wrap;html=1;strokeWidth=2;" vertex="1" parent="pCE1JtV5IQSBqkXDCpha-2">
          <mxGeometry x="172.5" y="920" width="80" height="80" as="geometry" />
        </mxCell>
        <mxCell id="pCE1JtV5IQSBqkXDCpha-53" value="心跳超时" style="text;html=1;align=center;verticalAlign=middle;resizable=0;points=[];autosize=1;strokeColor=none;fillColor=none;" vertex="1" parent="pCE1JtV5IQSBqkXDCpha-2">
          <mxGeometry x="205" y="908" width="70" height="30" as="geometry" />
        </mxCell>
        <mxCell id="pCE1JtV5IQSBqkXDCpha-74" value="结束代理" style="whiteSpace=wrap;html=1;strokeWidth=2;" vertex="1" parent="pCE1JtV5IQSBqkXDCpha-2">
          <mxGeometry x="152.5" y="1370" width="120" height="60" as="geometry" />
        </mxCell>
        <mxCell id="pCE1JtV5IQSBqkXDCpha-3" value="服务端" style="swimlane;startSize=20;html=1;" vertex="1" parent="pCE1JtV5IQSBqkXDCpha-0">
          <mxGeometry x="1135" y="20" width="320" height="2140" as="geometry" />
        </mxCell>
        <mxCell id="pCE1JtV5IQSBqkXDCpha-9" value="" style="edgeStyle=orthogonalEdgeStyle;rounded=0;orthogonalLoop=1;jettySize=auto;html=1;exitX=1;exitY=0.5;exitDx=0;exitDy=0;" edge="1" parent="pCE1JtV5IQSBqkXDCpha-0" source="pCE1JtV5IQSBqkXDCpha-19" target="pCE1JtV5IQSBqkXDCpha-8">
          <mxGeometry relative="1" as="geometry">
            <mxPoint x="310" y="220" as="sourcePoint" />
          </mxGeometry>
        </mxCell>
        <mxCell id="pCE1JtV5IQSBqkXDCpha-13" style="edgeStyle=orthogonalEdgeStyle;rounded=0;orthogonalLoop=1;jettySize=auto;html=1;exitX=0.5;exitY=1;exitDx=0;exitDy=0;entryX=0.5;entryY=0;entryDx=0;entryDy=0;entryPerimeter=0;" edge="1" parent="pCE1JtV5IQSBqkXDCpha-0" source="pCE1JtV5IQSBqkXDCpha-8" target="pCE1JtV5IQSBqkXDCpha-12">
          <mxGeometry relative="1" as="geometry" />
        </mxCell>
        <mxCell id="pCE1JtV5IQSBqkXDCpha-18" value="" style="edgeStyle=orthogonalEdgeStyle;rounded=0;orthogonalLoop=1;jettySize=auto;html=1;" edge="1" parent="pCE1JtV5IQSBqkXDCpha-0" source="pCE1JtV5IQSBqkXDCpha-15" target="pCE1JtV5IQSBqkXDCpha-17">
          <mxGeometry relative="1" as="geometry" />
        </mxCell>
        <mxCell id="pCE1JtV5IQSBqkXDCpha-67" style="edgeStyle=orthogonalEdgeStyle;rounded=0;orthogonalLoop=1;jettySize=auto;html=1;exitX=0;exitY=0.5;exitDx=0;exitDy=0;entryX=1;entryY=0.5;entryDx=0;entryDy=0;" edge="1" parent="pCE1JtV5IQSBqkXDCpha-0" source="pCE1JtV5IQSBqkXDCpha-50" target="pCE1JtV5IQSBqkXDCpha-65">
          <mxGeometry relative="1" as="geometry">
            <Array as="points">
              <mxPoint x="560" y="980" />
              <mxPoint x="560" y="1280" />
            </Array>
          </mxGeometry>
        </mxCell>
        <mxCell id="pCE1JtV5IQSBqkXDCpha-68" value="Y" style="edgeLabel;html=1;align=center;verticalAlign=middle;resizable=0;points=[];" vertex="1" connectable="0" parent="pCE1JtV5IQSBqkXDCpha-67">
          <mxGeometry x="-0.8547" y="-2" relative="1" as="geometry">
            <mxPoint as="offset" />
          </mxGeometry>
        </mxCell>
        <mxCell id="pCE1JtV5IQSBqkXDCpha-75" value="" style="edgeStyle=orthogonalEdgeStyle;rounded=0;orthogonalLoop=1;jettySize=auto;html=1;" edge="1" parent="pCE1JtV5IQSBqkXDCpha-0" source="pCE1JtV5IQSBqkXDCpha-70" target="pCE1JtV5IQSBqkXDCpha-74">
          <mxGeometry relative="1" as="geometry" />
        </mxCell>
        <mxCell id="pCE1JtV5IQSBqkXDCpha-81" value="N" style="edgeLabel;html=1;align=center;verticalAlign=middle;resizable=0;points=[];" vertex="1" connectable="0" parent="pCE1JtV5IQSBqkXDCpha-75">
          <mxGeometry x="-0.799" y="1" relative="1" as="geometry">
            <mxPoint as="offset" />
          </mxGeometry>
        </mxCell>
      </root>
    </mxGraphModel>
  </diagram>
</mxfile>
